<svg width="512" height="512" viewBox="0 0 512 512" fill="none" xmlns="http://www.w3.org/2000/svg">
  <rect width="512" height="512" rx="128" fill="#161A1C"/>
  <!-- 6x6 Grid Background -->
  <g opacity="0.1">
    <path d="M85 0V512M170 0V512M256 0V512M341 0V512M426 0V512" stroke="#60DEDE" stroke-width="2"/>
    <path d="M0 85H512M0 170H512M0 256H512M0 341H512M0 426H512" stroke="#60DEDE" stroke-width="2"/>
  </g>
  <!-- Main Piece (Knight) -->
  <g filter="url(#glow)">
    <path d="M256 120C320 130 384 170 384 400H128C128 330 192 350 192 250M128 180L160 200L150 240L120 220Z" fill="#FFFFFF" stroke="#2E75B8" stroke-width="12" stroke-linejoin="round"/>
    <path d="M276 200C286 220 266 240 246 250" fill="none" stroke="#2E75B8" stroke-width="12"/>
    <!-- Tactical Eye -->
    <circle cx="210" cy="200" r="8" fill="#60DEDE"/>
  </g>
  <defs>
    <filter id="glow" x="0" y="0" width="512" height="512" filterUnits="userSpaceOnUse" color-interpolation-filters="sRGB">
      <feFlood flood-opacity="0" result="BackgroundImageFix"/>
      <feColorMatrix in="SourceAlpha" type="matrix" values="0 0 0 0 0 0 0 0 0 0 0 0 0 0 0 0 0 0 127 0" result="hardAlpha"/>
      <feOffset dy="4"/>
      <feGaussianBlur stdDeviation="15"/>
      <feComposite in2="hardAlpha" operator="out"/>
      <feColorMatrix type="matrix" values="0 0 0 0 0.18 0 0 0 0 0.46 0 0 0 0 0.72 0 0 0 0.4 0"/>
      <feBlend mode="normal" in2="BackgroundImageFix" result="effect1_dropShadow"/>
      <feBlend mode="normal" in="SourceGraphic" in2="effect1_dropShadow" result="shape"/>
    </filter>
  </defs>
</svg>