<?xml version="1.0" encoding="UTF-8"?>
<!DOCTYPE svg PUBLIC "-//W3C//DTD SVG 1.1//EN" "http://www.w3.org/Graphics/SVG/1.1/DTD/svg11.dtd">
<svg version="1.1" xmlns="http://www.w3.org/2000/svg" xmlns:xlink="http://www.w3.org/1999/xlink" x="0" y="0" width="102.25" height="238.946" viewBox="0, 0, 102.25, 238.946">
  <g id="Figures" transform="translate(-66.204, -514.977)">
    <g id="wKing">
      <path d="M121.329,514.977 L121.329,525.424 L132.503,525.424 L132.503,533.424 L121.329,533.424 L121.329,543.872 L113.329,543.872 L113.329,533.424 L102.155,533.424 L102.155,525.424 L113.329,525.424 L113.329,514.977 L121.329,514.977 z" fill="#E3AB4B"/>
      <path d="M107.158,639.465 L125.93,638.99 L162.296,739.391 L72.361,739.734 L107.158,639.465 z" fill="#E3AB4B"/>
      <path d="M66.204,745.204 L168.454,745.204 L168.454,753.923 L66.204,753.923 L66.204,745.204 z" fill="#E3AB4B"/>
      <path d="M80.207,624.987 L154.451,624.987 L154.451,635.291 L80.207,635.291 L80.207,624.987 z" fill="#E3AB4B"/>
      <path d="M117.932,546.068 C138.434,546.068 155.054,562.806 155.054,583.454 L155.037,584.157 C156.835,584.154 157.481,584.153 159.781,584.16 C160.326,584.161 160.87,584.165 161.415,584.171 C161.876,584.176 161.76,584.164 161.984,584.191 C161.82,606.445 141.195,619.136 121.024,620.67 C119.209,620.856 120.239,620.781 117.932,620.84 L117.568,620.83 L117.089,620.84 C92.619,620.84 72.782,606.028 72.782,584.191 C75.458,584.34 78.15,584.297 80.832,584.305 L80.811,583.454 C80.811,562.806 97.431,546.068 117.932,546.068 z" fill="#E3AB4B"/>
    </g>
  </g>
</svg>
